<?xml version="1.0" standalone="no"?>
<!DOCTYPE svg PUBLIC "-//W3C//DTD SVG 20010904//EN"
 "http://www.w3.org/TR/2001/REC-SVG-20010904/DTD/svg10.dtd">
<svg version="1.0" xmlns="http://www.w3.org/2000/svg"
 width="700.000000pt" height="700.000000pt" viewBox="0 0 700.000000 700.000000"
 preserveAspectRatio="xMidYMid meet">
<metadata>
Created by potrace 1.14, written by Peter Selinger 2001-2017
</metadata>
<g transform="translate(0.000000,700.000000) scale(0.100000,-0.100000)"
fill="#000000" stroke="none">
<path d="M435 6866 c-150 -36 -272 -162 -304 -314 -8 -39 -11 -870 -11 -3055
0 -3288 -4 -3057 57 -3169 31 -57 103 -128 161 -157 106 -54 -90 -51 3162 -51
3291 0 3060 -4 3172 57 57 31 128 103 157 161 54 106 51 -90 51 3159 0 2185
-3 3016 -11 3055 -33 156 -162 284 -317 317 -80 17 -6048 14 -6117 -3z m3493
-1740 c130 -20 305 -59 447 -100 l110 -32 3 -208 c2 -196 1 -208 -15 -203 -10
3 -61 24 -113 47 -369 163 -765 217 -1069 144 -108 -26 -243 -96 -305 -159
-168 -167 -182 -489 -28 -648 94 -97 219 -141 667 -232 446 -91 635 -170 811
-337 149 -142 220 -298 244 -536 34 -332 -80 -636 -302 -805 -209 -159 -460
-232 -838 -244 -323 -10 -591 33 -967 153 l-143 46 0 219 c0 120 3 219 6 219
4 0 30 -13 58 -29 151 -86 435 -191 626 -233 92 -20 133 -22 335 -22 217 0
235 1 327 26 225 61 376 187 429 358 54 173 22 375 -79 508 -34 44 -134 115
-216 152 -95 43 -204 73 -462 125 -261 52 -400 91 -524 144 -343 148 -492 357
-507 711 -12 275 65 490 236 661 161 161 354 244 676 293 67 10 494 -3 593
-18z"/>
</g>
</svg>
