<?xml version="1.0" standalone="no"?>
<!DOCTYPE svg PUBLIC "-//W3C//DTD SVG 20010904//EN"
 "http://www.w3.org/TR/2001/REC-SVG-20010904/DTD/svg10.dtd">
<svg version="1.0" xmlns="http://www.w3.org/2000/svg"
 width="267.000000pt" height="267.000000pt" viewBox="0 0 267.000000 267.000000"
 preserveAspectRatio="xMidYMid meet">
<metadata>
Created by potrace 1.11, written by Peter Selinger 2001-2013
</metadata>
<g transform="translate(0.000000,267.000000) scale(0.100000,-0.100000)"
fill="#000000" stroke="none">
<path d="M472 2599 c-87 -6 -112 -11 -166 -38 -112 -55 -201 -164 -226 -276
-11 -50 -16 -1808 -5 -1884 14 -103 120 -243 221 -291 99 -49 97 -48 1062 -46
499 1 917 5 930 9 98 27 210 111 259 195 59 99 56 57 58 1041 1 516 -2 925 -7
954 -9 48 -40 125 -63 156 -67 92 -191 169 -288 178 -79 7 -1657 9 -1775 2z"/>
</g>
</svg>
